<?xml version="1.0" standalone="no"?>
<!DOCTYPE svg PUBLIC "-//W3C//DTD SVG 20010904//EN"
 "http://www.w3.org/TR/2001/REC-SVG-20010904/DTD/svg10.dtd">
<svg version="1.0" xmlns="http://www.w3.org/2000/svg"
 width="1024.000000pt" height="819.000000pt" viewBox="0 0 1024.000000 819.000000"
 preserveAspectRatio="xMidYMid meet">

<g transform="translate(0.000000,819.000000) scale(0.100000,-0.100000)"
fill="#000000" stroke="none">
<path d="M4921 6413 c-6 -10 -11 -12 -11 -5 0 10 -30 19 -30 8 0 -58 -24 -264
-32 -273 -6 -8 -8 -16 -5 -19 3 -3 -1 -20 -8 -38 -8 -18 -11 -43 -8 -54 3 -13
0 -24 -8 -27 -8 -3 -243 -1 -524 3 l-510 8 -99 58 c-55 31 -112 60 -127 63
-15 3 -171 0 -346 -7 -779 -30 -944 -35 -951 -29 -11 10 -394 -9 -417 -20 -16
-8 -446 -51 -507 -51 -11 0 -39 -37 -79 -106 -38 -65 -70 -109 -84 -114 -17
-6 -26 -22 -35 -59 -11 -45 -15 -51 -38 -51 -15 0 -33 -4 -40 -8 -12 -8 -46
-117 -62 -202 -8 -38 -45 -188 -89 -355 -6 -22 -65 -257 -131 -522 -66 -265
-128 -515 -139 -555 -11 -40 -45 -170 -75 -288 l-56 -216 10 -99 c5 -55 10
-279 10 -497 0 -368 1 -398 17 -406 10 -5 159 -55 331 -111 173 -56 404 -131
515 -167 632 -205 571 -189 1082 -279 259 -46 596 -106 750 -134 238 -43 652
-115 1485 -261 91 -16 341 -60 555 -99 215 -38 483 -86 597 -106 l208 -37 125
82 125 82 347 -52 c192 -28 677 -98 1078 -156 402 -57 736 -106 742 -109 7 -2
17 4 22 14 18 32 491 1152 491 1161 0 5 18 26 39 47 l39 38 111 460 c153 637
164 685 232 974 33 141 107 452 165 691 58 239 117 488 133 553 l28 117 -80
118 c-44 64 -124 183 -179 264 -54 81 -131 181 -171 222 l-72 74 -85 6 c-133
9 -628 35 -808 43 -157 6 -162 6 -156 -13 4 -10 12 -25 17 -32 5 -7 8 -15 5
-18 -3 -3 -18 16 -32 41 l-27 45 -357 0 c-351 0 -357 0 -370 -21 -13 -20 -18
-20 -265 -15 -139 3 -463 8 -722 11 -1097 11 -1525 18 -1525 25 0 4 3 10 7 14
8 8 16 406 9 406 -3 0 -10 -8 -15 -17z m-3504 -769 c7 -20 -63 -301 -83 -332
-14 -21 -21 -23 -92 -20 -60 2 -77 6 -77 18 0 12 15 15 72 15 40 0 76 5 82 10
9 10 81 269 81 293 0 7 -10 17 -22 22 -22 8 -22 9 5 9 17 1 30 -5 34 -15z
m1411 -27 c15 -17 10 -46 -32 -212 -43 -173 -45 -175 -158 -169 -46 2 -274 11
-508 20 -234 8 -429 19 -434 24 -20 20 7 29 75 24 56 -4 76 -1 96 12 20 13 27
13 34 3 16 -27 228 -39 249 -14 11 13 15 13 33 0 27 -19 246 -22 264 -4 9 9
16 8 28 -5 13 -13 39 -16 135 -16 74 0 121 4 126 11 3 6 24 78 45 161 36 142
38 152 21 164 -15 12 -15 13 -1 14 9 0 21 -6 27 -13z m-888 -7 c-20 -13 -33
-13 -25 0 3 6 14 10 23 10 15 0 15 -2 2 -10z m50 -5 c-7 -8 -16 -15 -21 -15
-5 0 -9 7 -9 15 0 9 9 15 21 15 18 0 19 -2 9 -15z m235 5 c-3 -5 -14 -10 -23
-10 -15 0 -15 2 -2 10 20 13 33 13 25 0z m45 -5 c0 -8 -7 -15 -15 -15 -9 0
-12 6 -9 15 4 8 10 15 15 15 5 0 9 -7 9 -15z m247 -1 c-3 -3 -12 -4 -19 -1 -8
3 -5 6 6 6 11 1 17 -2 13 -5z m47 -6 c-3 -4 -11 -5 -19 -1 -21 7 -19 12 4 10
11 0 18 -5 15 -9z m-624 -57 c0 -5 -3 -17 -6 -25 -5 -13 -9 -14 -20 -5 -11 9
-11 15 -3 25 13 16 29 18 29 5z m273 -21 c-5 -20 -15 -25 -26 -13 -8 7 11 33
23 33 5 0 6 -9 3 -20z m294 0 c-4 -28 -15 -36 -23 -15 -4 10 -1 21 7 26 19 12
19 12 16 -11z m1433 -60 c0 -5 -5 -10 -11 -10 -5 0 -7 5 -4 10 3 6 8 10 11 10
2 0 4 -4 4 -10z m3240 -27 c0 -10 -5 -25 -10 -33 -7 -11 -10 -7 -10 18 0 17 5
32 10 32 6 0 10 -8 10 -17z m-3821 -188 c101 -6 125 -5 145 8 20 14 25 14 38
1 10 -10 51 -16 148 -21 122 -6 134 -5 146 12 14 18 14 18 28 0 11 -16 35 -20
156 -28 133 -9 144 -8 157 9 7 10 13 13 13 8 0 -6 -6 -19 -14 -30 -13 -18 -26
-19 -173 -16 -87 2 -178 5 -203 7 -25 2 -160 7 -300 11 -432 11 -515 17 -515
34 0 12 18 15 100 16 79 1 101 4 109 17 9 15 12 14 27 -2 14 -15 40 -20 138
-26z m2468 23 c-3 -8 -6 -5 -6 6 -1 11 2 17 5 13 3 -3 4 -12 1 -19z m-760 -80
c-3 -8 -6 -5 -6 6 -1 11 2 17 5 13 3 -3 4 -12 1 -19z m-369 -3 c3 -3 0 -5 -7
-5 -7 0 -9 -4 -6 -10 3 -5 1 -10 -4 -10 -6 0 -11 5 -11 10 0 6 -5 10 -11 10
-5 0 -7 -5 -3 -12 5 -8 -6 -9 -41 -5 -26 4 -79 7 -116 7 -51 0 -67 3 -64 13 4
9 38 11 131 10 70 -1 129 -5 132 -8z m34 -4 c-10 -6 30 -7 315 -13 94 -2 136
-7 145 -17 11 -11 5 -12 -37 -8 -41 4 -141 8 -422 16 -15 1 -21 7 -20 20 1 12
6 17 15 14 8 -4 10 -8 4 -12z m1063 -24 c-16 -25 -43 -42 -52 -33 -3 2 4 7 15
10 10 4 25 18 32 31 7 14 15 23 17 21 3 -2 -3 -16 -12 -29z m-369 14 c-4 -5 0
-11 6 -14 7 -2 1 -4 -15 -3 -24 1 -25 2 -10 14 20 14 26 15 19 3z m-189 -17
c-3 -3 -12 -4 -19 -1 -8 3 -5 6 6 6 11 1 17 -2 13 -5z m58 -4 c-3 -5 -16 -10
-28 -10 -18 0 -19 2 -7 10 20 13 43 13 35 0z m70 0 c-3 -5 -18 -9 -33 -9 l-27
1 30 8 c17 4 31 8 33 9 2 0 0 -3 -3 -9z m241 0 c13 0 24 -4 24 -10 0 -6 -34
-10 -83 -10 -71 0 -84 3 -84 16 0 14 9 16 60 10 33 -3 71 -6 83 -6z m464 -30
c11 -7 -2 -10 -42 -10 -32 0 -58 4 -58 10 0 13 80 13 100 0z m385 -21 c5 -5
-21 -9 -70 -8 -44 1 -72 3 -62 6 17 4 17 5 1 17 -14 11 -4 11 52 4 38 -5 73
-14 79 -19z m357 -9 c98 0 99 -16 1 -18 -49 -1 -95 2 -103 8 -11 7 -11 10 -2
10 7 0 10 5 6 11 -5 8 -1 8 14 0 11 -6 49 -11 84 -11z m-175 -6 c-3 -3 -12 -4
-19 -1 -8 3 -5 6 6 6 11 1 17 -2 13 -5z m308 -4 c3 -5 -3 -10 -15 -10 -12 0
-18 5 -15 10 3 6 10 10 15 10 5 0 12 -4 15 -10z m131 -5 c-11 -8 -24 -15 -30
-15 -5 0 -1 7 10 15 10 8 24 14 29 14 6 0 1 -6 -9 -14z m-5556 -19 c0 -18 -16
-29 -30 -21 -13 8 -1 35 16 35 8 0 14 -6 14 -14z m241 -29 c-8 -8 -11 -7 -11
4 0 20 13 34 18 19 3 -7 -1 -17 -7 -23z m-186 13 c-3 -5 -10 -10 -16 -10 -5 0
-9 5 -9 10 0 6 7 10 16 10 8 0 12 -4 9 -10z m275 -5 c0 -8 -7 -15 -15 -15 -16
0 -20 12 -8 23 11 12 23 8 23 -8z m206 -22 c-11 -11 -19 6 -11 24 8 17 8 17
12 0 3 -10 2 -21 -1 -24z m64 17 c0 -5 -4 -10 -10 -10 -5 0 -10 5 -10 10 0 6
5 10 10 10 6 0 10 -4 10 -10z m23 -5 c-3 -9 -8 -14 -10 -11 -3 3 -2 9 2 15 9
16 15 13 8 -4z m217 -16 c0 -5 -4 -9 -10 -9 -5 0 -10 7 -10 16 0 8 5 12 10 9
6 -3 10 -10 10 -16z m64 6 c3 -9 0 -15 -9 -15 -8 0 -15 7 -15 15 0 8 4 15 9
15 5 0 11 -7 15 -15z m3313 -207 c-3 -8 -6 -5 -6 6 -1 11 2 17 5 13 3 -3 4
-12 1 -19z m-4500 -14 c-7 -7 -37 7 -37 17 0 6 9 5 21 -1 11 -7 19 -14 16 -16z
m279 -21 c-2 -2 -17 2 -35 8 -24 9 -29 14 -21 24 9 10 16 9 35 -8 13 -12 22
-23 21 -24z m5544 40 c0 -21 -135 -721 -151 -783 -15 -60 -25 -62 -242 -44
-105 9 -196 20 -201 25 -6 6 -5 9 3 9 7 0 9 5 6 10 -8 13 8 13 21 1 5 -5 85
-15 177 -22 161 -11 169 -11 186 7 12 12 28 68 45 154 43 219 42 214 11 238
-15 12 -34 22 -41 22 -7 0 -15 4 -18 8 -2 4 10 6 28 4 61 -7 73 15 107 193 17
88 33 166 35 173 4 13 34 17 34 5z m-5295 -33 c3 -5 -1 -10 -9 -10 -9 0 -16 5
-16 10 0 6 4 10 9 10 6 0 13 -4 16 -10z m5472 -12 c-3 -8 -6 -5 -6 6 -1 11 2
17 5 13 3 -3 4 -12 1 -19z m-5189 -4 c14 -15 14 -16 -3 -13 -10 2 -20 10 -23
17 -5 17 6 15 26 -4z m3679 -6 c-3 -8 -6 -5 -6 6 -1 11 2 17 5 13 3 -3 4 -12
1 -19z m-3371 -18 c44 -22 37 -25 -18 -9 -21 5 -38 14 -38 19 0 14 12 12 56
-10z m5310 -22 c-18 -26 -22 -17 -5 14 6 11 13 17 16 15 3 -3 -2 -16 -11 -29z
m-5041 12 c3 -5 -1 -10 -9 -10 -9 0 -16 5 -16 10 0 6 4 10 9 10 6 0 13 -4 16
-10z m4105 -5 c7 -9 8 -15 2 -15 -5 0 -12 7 -16 15 -3 8 -4 15 -2 15 2 0 9 -7
16 -15z m-3796 -10 c3 -9 0 -15 -9 -15 -16 0 -27 14 -18 24 10 10 21 7 27 -9z
m-1590 -4 c11 -18 -6 -41 -30 -41 -26 0 -32 18 -12 38 14 14 35 16 42 3z
m7602 -48 c-4 -32 -17 -114 -30 -183 -13 -69 -34 -183 -46 -255 -12 -71 -32
-186 -45 -255 -13 -69 -40 -219 -60 -335 -39 -235 -80 -466 -140 -790 -3 -16
-19 -115 -35 -220 -36 -226 -43 -240 -116 -240 -27 0 -105 7 -174 14 -69 7
-150 15 -180 17 -30 1 -73 7 -95 13 -48 13 -221 37 -363 51 -57 5 -107 12
-111 14 -4 3 -108 17 -232 31 -321 37 -449 54 -493 66 -33 9 -37 13 -24 25 12
12 36 11 178 -6 91 -12 239 -32 330 -45 255 -38 275 -36 287 39 7 42 23 48 23
9 1 -79 14 -86 192 -108 214 -26 230 -22 243 57 12 70 22 74 21 10 -1 -86 11
-95 137 -115 314 -50 293 -55 317 83 6 36 22 121 35 190 13 69 31 168 40 220
9 52 25 140 35 195 10 55 21 114 24 131 6 39 -13 64 -69 87 l-40 16 47 0 c47
1 72 15 82 49 9 30 36 179 91 502 49 287 53 317 39 338 -8 13 -26 27 -40 32
-29 12 -32 24 -3 17 35 -9 66 9 77 45 6 18 22 98 37 178 31 176 32 180 52 180
13 0 15 -9 9 -57z m-6259 41 c-3 -3 -12 -4 -19 -1 -8 3 -5 6 6 6 11 1 17 -2
13 -5z m561 -12 c2 -7 -2 -10 -12 -6 -9 3 -16 11 -16 16 0 13 23 5 28 -10z
m4872 3 c0 -8 -4 -15 -9 -15 -13 0 -22 16 -14 24 11 11 23 6 23 -9z m-5115 -5
c8 -13 -25 -13 -45 0 -12 8 -9 10 12 10 15 0 30 -4 33 -10z m-1420 -10 c-4 -7
3 -7 19 0 28 10 29 10 20 -14 -9 -24 -54 -21 -54 4 0 11 5 20 11 20 5 0 7 -4
4 -10z m1980 0 c3 -5 -1 -10 -9 -10 -9 0 -16 5 -16 10 0 6 4 10 9 10 6 0 13
-4 16 -10z m-1673 -25 c-3 -18 -11 -25 -28 -25 -27 0 -28 3 -14 31 6 10 19 19
29 19 14 0 17 -6 13 -25z m1423 15 c3 -5 2 -10 -4 -10 -5 0 -13 5 -16 10 -3 6
-2 10 4 10 5 0 13 -4 16 -10z m580 -18 c-8 -8 -25 10 -19 20 4 6 9 5 15 -3 4
-7 6 -15 4 -17z m-1695 -4 c0 -7 -4 -19 -9 -27 -8 -12 -12 -12 -24 -2 -12 9
-16 9 -20 -1 -2 -7 -7 -10 -11 -6 -4 3 -3 16 4 27 12 23 60 30 60 9z m1455 2
c3 -5 -1 -10 -9 -10 -8 0 -18 5 -21 10 -3 6 1 10 9 10 8 0 18 -4 21 -10z
m-2645 -10 c0 -13 -20 -13 -40 0 -12 8 -9 10 13 10 15 0 27 -4 27 -10z m1474
-8 c-6 -4 -15 -15 -21 -26 -9 -17 -11 -16 -15 8 -5 23 -2 26 21 26 14 0 21 -4
15 -8z m293 -42 c-6 -8 -12 -16 -13 -18 -1 -1 -4 5 -6 15 -4 13 0 19 13 19 14
0 16 -3 6 -16z m280 -32 c-3 -7 -5 -2 -5 12 0 14 2 19 5 13 2 -7 2 -19 0 -25z
m350 -25 c-3 -10 -5 -4 -5 12 0 17 2 24 5 18 2 -7 2 -21 0 -30z m1650 21 c-3
-3 -12 -4 -19 -1 -8 3 -5 6 6 6 11 1 17 -2 13 -5z m618 -24 c-4 -12 -9 -19
-12 -17 -3 3 -2 15 2 27 4 12 9 19 12 17 3 -3 2 -15 -2 -27z m-1925 16 c0 -2
-9 -6 -20 -9 -11 -3 -18 -1 -14 4 5 9 34 13 34 5z m1900 -30 c0 -3 -4 -8 -10
-11 -5 -3 -10 -1 -10 4 0 6 5 11 10 11 6 0 10 -2 10 -4z m913 -17 c3 -12 3
-18 0 -15 -4 3 -12 1 -19 -5 -10 -8 -11 -6 -1 15 14 31 13 31 20 5z m-901 -41
c-3 -24 -11 -63 -18 -88 -11 -36 -13 -38 -9 -10 3 19 8 59 12 88 3 28 9 52 13
52 5 0 6 -19 2 -42z m2302 -40 c3 -14 14 -29 24 -31 13 -4 13 -5 -4 -6 -12 0
-32 -12 -45 -24 l-24 -24 -60 28 -60 28 51 1 c60 0 79 16 90 75 l7 40 8 -30
c4 -16 10 -42 13 -57z m-436 -2 c-2 0 -15 -11 -29 -24 l-26 -23 -44 20 -44 20
38 0 c40 1 76 28 78 59 0 10 7 3 15 -17 8 -18 14 -34 12 -35z m902 -66 c13 -8
12 -10 -2 -10 -10 0 -18 -5 -18 -11 0 -7 -6 -17 -14 -23 -7 -6 -21 -47 -31
-91 -25 -115 -33 -144 -34 -120 -1 11 3 34 8 52 5 18 12 61 16 96 l7 64 -44
21 -43 21 33 1 c44 0 77 34 87 90 l9 45 5 -63 c4 -40 11 -66 21 -72z m-1910
108 c0 -10 -19 -9 -45 2 -16 7 -14 8 12 7 18 -1 33 -5 33 -9z m-5275 -18 c-3
-5 -21 -9 -38 -9 l-32 1 30 8 c43 11 47 11 40 0z m283 -2 c20 -20 14 -28 -25
-28 -36 0 -36 0 -17 19 23 24 27 24 42 9z m288 -29 c17 -28 -56 -34 -81 -7 -7
8 -5 9 6 5 9 -3 22 -1 30 4 19 12 36 11 45 -2z m279 -20 c9 -28 2 -32 -36 -24
l-32 7 24 19 c31 24 36 24 44 -2z m294 -23 c16 -19 -2 -30 -36 -21 -24 6 -25
7 -7 20 24 18 29 18 43 1z m300 -12 c15 -33 10 -38 -28 -29 -30 6 -31 7 -13
30 22 31 26 31 41 -1z m-1719 -6 c0 -17 -3 -19 -9 -9 -5 8 -14 10 -22 5 -12
-6 -12 -5 0 9 19 23 31 21 31 -5z m360 -7 c0 -23 -16 -37 -23 -19 -3 10 -7 10
-20 -1 -19 -15 -22 -8 -7 20 14 25 50 25 50 0z m5867 13 c21 -6 21 -7 6 -30
-8 -13 -20 -24 -26 -24 -5 0 -2 9 8 20 18 20 17 20 -16 20 -26 0 -30 3 -19 10
18 11 18 11 47 4z m-1020 -10 c-3 -3 -12 -4 -19 -1 -8 3 -5 6 6 6 11 1 17 -2
13 -5z m-3181 -18 c24 -24 17 -39 -13 -31 -36 9 -38 11 -22 29 17 19 17 19 35
2z m4651 6 c7 -4 10 -17 6 -30 -4 -18 -12 -22 -44 -22 -31 0 -39 4 -39 18 0
35 45 55 77 34z m-6037 -27 c0 -21 -5 -25 -31 -25 -16 0 -28 3 -26 8 2 4 7 15
10 25 4 9 16 17 27 17 15 0 20 -7 20 -25z m1710 -5 c24 -24 11 -33 -37 -24
-33 6 -35 8 -15 15 12 5 22 13 22 19 0 15 8 12 30 -10z m2307 -17 c-3 -10 -5
-4 -5 12 0 17 2 24 5 18 2 -7 2 -21 0 -30z m-3729 11 c-4 -22 -31 -39 -51 -31
-10 4 -14 13 -10 26 7 27 66 31 61 5z m6208 -10 c-3 -9 -6 -22 -6 -30 0 -10
-13 -14 -46 -14 -34 0 -43 3 -37 13 4 6 6 20 5 30 -3 14 5 17 43 17 39 0 46
-3 41 -16z m-7126 -4 c0 -5 -14 -7 -32 -3 -46 8 -48 13 -5 13 21 0 37 -4 37
-10z m1214 2 c8 -13 -7 -29 -36 -36 -31 -7 -36 4 -12 28 17 17 40 21 48 8z
m1461 -33 c-3 -4 -19 -3 -36 3 -27 9 -28 11 -12 23 15 11 21 11 35 -2 10 -9
15 -19 13 -24z m-1160 11 c4 -6 -5 -10 -19 -10 -27 0 -35 -15 -13 -23 6 -3 2
-6 -10 -6 -26 -1 -27 2 -13 30 11 20 45 26 55 9z m1799 -27 c-3 -16 -2 -23 3
-16 6 8 15 6 32 -8 20 -17 21 -19 5 -18 -26 1 -93 27 -72 28 9 1 20 10 23 21
9 30 16 24 9 -7z m1323 -5 c-3 -7 -5 -2 -5 12 0 14 2 19 5 13 2 -7 2 -19 0
-25z m-1633 7 c22 -16 9 -20 -32 -8 -18 4 -20 8 -10 14 17 11 20 11 42 -6z
m-1227 -27 c-22 -14 -28 -8 -16 13 9 17 13 19 20 8 5 -8 3 -16 -4 -21z m2462
16 c2 -2 -15 -4 -38 -4 -25 0 -40 4 -36 10 5 8 63 3 74 -6z m2395 -16 c9 -35
7 -42 -7 -30 -7 6 -24 8 -38 5 l-24 -6 24 27 c30 32 37 32 45 4z m-2013 -50
c-9 -31 -9 -31 -10 -6 -1 30 11 67 16 51 2 -6 0 -26 -6 -45z m-2214 7 c-4 -8
-11 -15 -17 -15 -7 0 -7 6 0 21 13 23 26 19 17 -6z m1278 15 c13 -6 15 -9 5
-9 -8 0 -22 4 -30 9 -18 12 -2 12 25 0z m3333 -15 c-2 -2 -19 0 -38 3 -33 5
-33 6 -10 12 20 6 58 -6 48 -15z m-4577 6 c-8 -5 -10 -14 -6 -22 6 -11 5 -11
-5 -2 -14 12 -6 33 13 33 8 0 7 -3 -2 -9z m1639 -32 c0 -4 -7 -6 -15 -3 -8 4
-15 10 -15 15 0 4 7 6 15 3 8 -4 15 -10 15 -15z m527 -41 c-3 -8 -6 -5 -6 6
-1 11 2 17 5 13 3 -3 4 -12 1 -19z m-4321 -19 c53 -14 40 -32 -16 -23 -59 9
-67 13 -50 24 19 12 13 12 66 -1z m5210 -26 c-11 -11 -17 4 -9 23 7 18 8 18
11 1 2 -10 1 -21 -2 -24z m-4966 12 c7 -8 23 -15 36 -15 12 0 26 -4 29 -10 8
-13 -6 -13 -61 1 -43 11 -51 18 -37 32 10 11 19 8 33 -8z m4409 -1 c11 -10
-10 -11 -81 -7 -43 3 -78 10 -78 15 0 9 149 1 159 -8z m298 -20 c60 -5 138 -9
176 -9 37 0 63 -1 57 -3 -6 -2 -7 -8 -4 -14 5 -7 -14 -9 -57 -5 -94 9 -272 22
-286 20 -7 0 -13 6 -13 14 0 8 -4 11 -10 8 -6 -3 -7 1 -4 9 5 13 8 13 20 2 8
-9 53 -17 121 -22z m-4379 -19 c20 -4 30 -11 25 -16 -5 -5 -25 -4 -48 2 -69
18 -69 17 -55 34 11 13 15 14 29 1 9 -7 31 -17 49 -21z m4182 23 c0 -4 -15 -5
-32 -1 -47 8 -49 14 -5 11 20 -1 37 -6 37 -10z m1424 -77 c5 -7 18 -16 30 -21
20 -8 19 -9 -6 -9 -17 -1 -34 -11 -46 -28 l-20 -28 -20 25 c-11 13 -35 30 -53
36 l-34 12 38 1 c53 1 74 15 83 53 l7 33 7 -31 c4 -17 10 -36 14 -43z m436
-35 c3 -3 19 -12 35 -20 26 -14 27 -16 9 -16 -22 0 -55 -36 -88 -95 l-16 -30
2 55 c3 54 3 54 -37 77 l-40 23 40 0 c45 0 59 14 72 76 l7 39 6 -52 c3 -28 8
-54 10 -57z m447 82 c-3 -8 -6 -5 -6 6 -1 11 2 17 5 13 3 -3 4 -12 1 -19z
m-7387 2 c0 -12 -32 -50 -42 -50 -10 0 -11 44 -1 53 10 11 43 8 43 -3z m1140
-5 c7 -8 28 -15 46 -15 19 0 34 -4 34 -10 0 -13 -34 -13 -81 2 -38 11 -46 18
-32 31 10 11 19 8 33 -8z m3468 -117 c-16 -73 -31 -144 -34 -157 -3 -13 -7
-21 -9 -19 -10 10 57 308 69 308 2 0 -10 -60 -26 -132z m-3175 98 c3 -8 37
-17 94 -25 115 -14 166 -14 182 2 10 10 14 9 22 -5 5 -10 28 -20 55 -24 31 -4
42 -10 35 -17 -7 -7 -30 -5 -73 6 -35 10 -115 19 -178 21 -63 2 -123 7 -132
10 -10 3 -25 8 -34 11 -13 4 -14 8 -4 20 15 19 26 19 33 1z m-1003 -25 c0 -6
-5 -13 -10 -16 -6 -4 -8 -11 -5 -16 4 -5 -3 -9 -14 -9 -12 0 -21 5 -21 10 0 6
5 10 10 10 6 0 10 7 10 15 0 8 7 15 15 15 8 0 15 -4 15 -9z m7106 -36 c-3 -9
-11 -13 -16 -10 -8 5 -7 11 1 21 14 18 24 11 15 -11z m-6826 3 c0 -4 -4 -8
-10 -8 -5 0 -7 -6 -4 -14 4 -11 0 -13 -14 -9 -25 6 -18 39 9 39 10 0 19 -4 19
-8z m1335 -4 c6 -9 32 -18 59 -21 26 -3 43 -10 39 -14 -8 -8 -120 15 -131 26
-5 5 7 25 15 25 3 0 11 -7 18 -16z m-2065 2 c0 -3 -4 -8 -10 -11 -5 -3 -10 -1
-10 4 0 6 5 11 10 11 6 0 10 -2 10 -4z m-37 -13 c-7 -2 -19 -2 -25 0 -7 3 -2
5 12 5 14 0 19 -2 13 -5z m7423 -34 c-3 -22 -8 -44 -11 -49 -3 -5 -29 2 -58
15 -28 14 -57 25 -64 25 -6 0 -14 3 -17 8 -2 4 25 7 61 7 51 0 66 4 74 18 16
28 21 20 15 -24z m-6366 20 c0 -6 -8 -8 -19 -4 -28 9 -36 -14 -9 -24 23 -10
22 -10 -4 -10 -21 -1 -28 4 -28 17 0 10 3 22 7 25 10 11 53 8 53 -4z m1423
-24 c26 -4 47 -12 47 -17 0 -6 -10 -8 -22 -4 -13 3 -47 11 -75 17 -43 10 -51
15 -41 26 9 11 13 11 27 -1 9 -8 37 -17 64 -21z m-1152 -15 c5 0 9 5 9 10 0 6
5 10 12 10 6 0 1 -11 -12 -25 -24 -26 -24 -26 -32 -4 -4 11 -5 26 -1 32 5 8 9
6 11 -5 2 -10 8 -18 13 -18z m4874 18 c22 -10 28 -9 35 2 14 22 19 8 8 -20 -6
-15 -12 -20 -15 -12 -3 6 -18 12 -34 12 -19 0 -29 5 -29 15 0 18 2 18 35 3z
m-3387 -34 c29 -4 50 -10 45 -15 -7 -6 -139 18 -153 28 -2 2 2 8 10 13 9 6 20
4 30 -5 8 -7 39 -17 68 -21z m285 -25 c20 -9 20 -9 -3 -4 -14 2 -33 5 -43 5
-15 0 -15 3 -5 20 11 17 14 17 21 4 5 -8 18 -20 30 -25z m-1441 25 c3 -3 4
-14 1 -25 -4 -13 -14 -19 -34 -19 -30 0 -34 6 -23 34 6 15 44 22 56 10z m1773
-52 c-8 -8 -25 10 -25 26 0 13 2 13 14 -4 8 -10 13 -21 11 -22z m3248 28 c10
0 16 -4 13 -8 -3 -5 -19 -7 -37 -4 -21 3 -30 1 -25 -6 3 -6 0 -13 -6 -16 -7
-3 4 -3 25 0 26 3 37 2 32 -5 -3 -6 -21 -11 -40 -11 -31 0 -34 2 -31 28 2 15
4 29 5 31 0 2 11 1 24 -3 12 -3 30 -6 40 -6z m-4717 -18 c1 -7 0 -8 -3 -2 -7
15 -24 12 -46 -7 -19 -18 -20 -17 -8 5 13 25 52 28 57 4z m5180 10 c7 -4 8
-15 3 -29 -7 -19 -16 -23 -49 -23 -41 0 -48 9 -34 44 6 17 59 22 80 8z m-3946
-12 c0 -12 -27 -12 -55 0 -16 7 -13 9 18 9 20 1 37 -3 37 -9z m-920 -20 c12
-8 10 -9 -7 -7 -12 2 -26 6 -29 10 -11 11 19 8 36 -3z m335 0 c-3 -5 -12 -10
-18 -10 -7 0 -6 4 3 10 19 12 23 12 15 0z m3597 -20 l-4 -30 -31 22 -31 22 24
7 c43 12 47 10 42 -21z m-2417 -9 c-6 -5 -25 10 -25 20 0 5 6 4 14 -3 8 -7 12
-15 11 -17z m-232 12 c-7 -2 -21 -2 -30 0 -10 3 -4 5 12 5 17 0 24 -2 18 -5z
m-614 -24 c-22 -13 -31 -11 -17 5 7 8 17 12 22 9 4 -3 2 -9 -5 -14z m-2899
-18 c0 -4 -13 -6 -30 -3 -16 2 -30 7 -30 11 0 4 14 6 30 3 17 -2 30 -7 30 -11z
m4100 9 c0 -5 -2 -10 -4 -10 -3 0 -8 5 -11 10 -3 6 -1 10 4 10 6 0 11 -4 11
-10z m2954 -33 c18 -13 16 -15 -27 -30 -41 -14 -64 -9 -37 8 6 3 10 17 10 31
0 26 9 25 54 -9z m-6669 -1 l50 -14 -62 0 c-58 -1 -81 9 -50 21 6 3 12 6 12 6
0 0 23 -6 50 -13z m250 -20 c37 -19 230 -32 249 -17 11 10 16 8 24 -5 13 -23
236 -51 258 -33 11 9 22 8 46 -4 18 -8 69 -18 113 -22 44 -4 89 -9 100 -11 10
-2 29 3 42 12 20 13 24 13 29 0 3 -8 13 -17 22 -21 33 -13 237 -33 253 -24 11
5 28 3 45 -5 16 -7 80 -19 143 -25 103 -11 115 -10 132 5 12 10 19 13 19 5 0
-20 41 -31 168 -44 109 -12 126 -12 139 1 10 11 17 12 22 4 11 -19 58 -31 143
-38 66 -6 78 -9 60 -17 -15 -7 -51 -5 -119 6 -54 9 -125 19 -158 22 -33 3
-118 12 -190 20 -71 8 -202 21 -290 30 -88 8 -308 31 -490 50 -181 19 -406 42
-500 50 -93 9 -205 23 -249 32 -69 15 -76 18 -60 30 22 16 16 16 49 -1z m-850
-56 c3 -5 1 -10 -4 -10 -6 0 -11 5 -11 10 0 6 2 10 4 10 3 0 8 -4 11 -10z
m345 0 c0 -22 -25 -60 -39 -60 -30 0 -44 17 -37 44 5 22 12 26 41 26 19 0 35
-4 35 -10z m4406 -115 c-8 -33 -25 -104 -36 -157 -12 -54 -26 -98 -31 -98 -5
0 -5 9 1 23 5 12 24 99 42 192 22 114 34 158 36 135 2 -19 -3 -62 -12 -95z
m1909 -11 c11 -8 46 -15 84 -15 36 -1 53 -4 36 -6 -70 -8 -95 -14 -95 -23 0
-6 7 -10 17 -10 13 0 11 -4 -7 -20 -13 -11 -20 -23 -16 -27 4 -4 10 -2 14 4 5
8 18 10 37 4 23 -6 30 -13 30 -32 0 -21 -5 -24 -37 -27 -38 -3 -54 -21 -20
-23 14 0 14 -2 -3 -9 -18 -8 -17 -9 8 -9 32 -1 33 -8 8 -38 -26 -31 -38 -29
-46 7 -4 17 -10 30 -14 30 -9 0 -6 -43 4 -59 3 -6 2 -19 -4 -28 -8 -16 -10
-14 -16 10 -4 15 -12 27 -17 27 -6 0 -8 13 -6 29 3 23 1 28 -16 27 -16 -1 -24
-12 -32 -46 l-11 -45 36 -17 c38 -19 20 -25 -23 -8 -32 12 -32 19 -2 111 33
102 25 157 -24 181 l-35 17 34 1 c43 0 71 25 71 61 0 60 15 64 20 6 4 -42 11
-63 25 -73z m433 -37 c8 -9 23 -18 35 -21 12 -2 5 -4 -15 -2 -20 1 -34 -2 -32
-6 6 -9 -20 -38 -32 -38 -4 0 -17 8 -28 18 -21 19 -106 48 -161 55 -16 2 14 5
67 6 112 1 123 8 135 79 l8 47 5 -61 c3 -34 11 -68 18 -77z m-6463 93 c3 -5
-3 -10 -14 -10 -11 0 -23 5 -26 10 -3 6 3 10 14 10 11 0 23 -4 26 -10z m4745
-25 c0 -5 -13 -10 -29 -11 l-29 -1 22 22 c20 21 35 17 36 -10z m2152 -12 c-4
-59 11 -101 40 -112 20 -8 21 -10 6 -16 -9 -3 -22 -20 -28 -36 -7 -16 -17 -26
-23 -22 -6 4 -7 1 -3 -6 5 -7 1 -20 -7 -29 -21 -24 -80 -295 -72 -332 4 -20 3
-30 -5 -30 -8 0 -10 -8 -7 -21 3 -12 3 -18 -1 -14 -4 3 -14 -20 -24 -52 l-18
-58 5 46 c3 25 3 53 -1 62 -5 15 -67 38 -159 61 -11 3 18 2 65 0 62 -4 90 -2
102 8 13 9 26 58 48 178 39 214 39 226 -2 244 -86 37 -86 36 -31 30 65 -7 88
13 99 83 6 43 11 63 17 63 1 0 1 -21 -1 -47z m-1856 0 c-4 -16 -11 -46 -17
-68 -5 -22 -10 -47 -11 -55 0 -8 -9 -55 -19 -104 -21 -101 -19 -121 19 -154
24 -21 24 -22 4 -12 -30 15 -77 9 -77 -9 0 -8 11 -16 25 -18 14 -2 31 -10 38
-17 11 -11 8 -13 -17 -11 -26 1 -29 -1 -20 -17 5 -10 16 -18 24 -18 8 0 15 -4
15 -10 0 -5 -7 -10 -16 -10 -9 0 -12 -5 -8 -12 4 -7 -2 -5 -13 5 -20 17 -21
17 -26 -2 -3 -11 -2 -20 2 -19 22 2 28 -6 27 -39 0 -21 -5 -41 -11 -45 -7 -5
-7 -8 0 -8 6 0 12 -11 13 -25 2 -23 -1 -25 -42 -25 -69 0 -73 13 -41 127 15
54 31 105 36 114 10 20 -12 41 -56 57 l-30 10 41 1 c26 1 47 8 56 19 15 16 44
138 69 287 13 76 16 85 30 85 7 0 9 -10 5 -27z m-2672 -75 c6 -4 -11 -7 -39
-6 -27 0 -40 3 -28 5 12 2 27 11 34 20 11 12 14 13 18 2 2 -8 9 -17 15 -21z
m3314 -13 c-6 -14 -14 -25 -18 -25 -4 0 -5 11 -2 25 2 14 10 25 18 25 11 0 11
-5 2 -25z m-3271 -1 c-3 -3 -12 -4 -19 -1 -8 3 -5 6 6 6 11 1 17 -2 13 -5z
m287 -12 c10 -17 -68 -28 -114 -16 l-45 12 61 -5 c40 -4 64 -2 68 6 8 13 23
14 30 3z m2010 -1 c11 -18 -6 -41 -29 -39 -20 2 -21 5 -12 25 10 23 31 30 41
14z m866 -26 c0 -8 -7 -15 -15 -15 -9 0 -12 6 -9 15 4 8 10 15 15 15 5 0 9 -7
9 -15z m-6085 -11 c50 -3 151 -14 225 -25 95 -14 143 -18 162 -11 19 7 30 6
40 -4 7 -7 70 -19 152 -29 122 -14 141 -14 161 -1 20 13 24 12 46 -9 25 -26
99 -38 474 -80 77 -9 230 -30 340 -46 110 -16 272 -39 360 -49 328 -41 459
-60 469 -70 7 -7 1 -10 -17 -10 -15 0 -27 5 -27 10 0 6 -10 8 -23 5 -19 -5
-105 3 -302 29 -16 2 -97 11 -180 21 -341 38 -1341 162 -1445 179 -14 3 -68
10 -120 16 -176 21 -465 61 -482 66 -10 3 -18 10 -18 16 0 7 16 8 48 3 26 -4
88 -9 137 -11z m3312 10 c-3 -3 -12 -4 -19 -1 -8 3 -5 6 6 6 11 1 17 -2 13 -5z
m2719 -47 c1 -34 -1 -45 -7 -32 -6 16 -8 16 -8 3 -1 -9 -4 -25 -7 -35 -5 -15
-4 -15 5 -3 9 13 11 13 11 -2 0 -9 6 -19 13 -22 6 -3 1 -3 -13 0 -36 9 -40 21
-23 73 8 25 16 52 19 59 6 22 9 13 10 -41z m-962 27 c3 -8 2 -12 -4 -9 -6 3
-10 10 -10 16 0 14 7 11 14 -7z m-1484 -20 l25 -14 -30 7 c-16 3 -50 12 -75
20 l-45 13 50 -6 c27 -3 61 -12 75 -20z m3518 16 c9 0 12 -10 10 -27 -3 -25
-7 -28 -45 -31 -26 -2 -43 1 -43 7 0 6 7 11 17 11 15 0 15 2 -1 19 -20 22 -6
33 29 26 11 -3 26 -5 33 -5z m-1031 -6 c-3 -3 -12 -4 -19 -1 -8 3 -5 6 6 6 11
1 17 -2 13 -5z m909 -125 c19 -22 19 -22 -4 -10 -13 7 -30 10 -38 7 -8 -3 -14
-1 -14 3 0 8 15 18 31 20 3 1 14 -9 25 -20z m-2432 -96 c-17 -71 -18 -77 -39
-188 -10 -49 -24 -105 -32 -124 l-15 -34 -82 7 c-73 7 -112 12 -126 16 -3 1 6
5 18 11 13 5 29 6 35 2 15 -9 164 -16 155 -7 -4 4 -2 14 4 21 10 12 46 168 75
321 3 17 9 32 13 32 4 0 1 -26 -6 -57z m86 21 c0 -14 -4 -23 -9 -20 -5 3 -7
15 -4 26 7 28 13 25 13 -6z m124 0 c-7 -3 -9 -14 -7 -25 5 -19 4 -20 -16 -8
-26 17 -27 26 -3 32 23 6 40 7 26 1z m1677 -76 c11 -44 28 -50 189 -67 58 -7
121 -14 141 -16 45 -6 70 12 85 61 l12 39 1 -36 c2 -57 17 -69 111 -84 l85
-14 -87 5 c-82 5 -86 5 -93 -16 -4 -13 -12 -19 -20 -16 -9 3 -12 0 -8 -10 3
-7 0 -14 -6 -14 -6 0 -11 -6 -11 -14 0 -8 -5 -18 -11 -22 -8 -4 -9 3 -5 24 9
39 -10 58 -77 76 -54 16 -202 35 -309 41 -35 2 -106 10 -158 18 -52 9 -108 18
-125 21 -16 2 27 3 97 0 106 -4 129 -2 142 12 9 8 16 24 16 34 0 10 3 27 7 37
7 17 8 17 11 -2 2 -11 8 -37 13 -57z m-1276 26 c13 5 13 2 -1 -19 -18 -27 -30
-32 -31 -12 0 6 -4 21 -9 32 -7 18 -6 18 9 6 9 -7 24 -11 32 -7z m955 -40 c0
-2 -14 -4 -31 -4 -16 0 -28 4 -25 9 5 8 56 3 56 -5z m-529 -35 c-3 -4 -17 -10
-31 -14 -20 -6 -23 -5 -12 6 6 7 12 22 12 33 0 19 0 19 19 0 10 -10 16 -22 12
-25z m-2761 -9 c123 -19 175 -34 84 -25 -38 3 -42 2 -19 -4 29 -8 29 -9 -10
-9 -46 -1 -203 25 -165 27 l25 1 -29 15 c-15 8 -33 12 -40 8 -6 -4 -5 1 3 11
10 12 16 14 21 5 4 -6 63 -19 130 -29z m3052 19 c-2 -8 -10 -57 -18 -109 -8
-52 -21 -122 -29 -155 -8 -33 -16 -71 -18 -85 -4 -33 -23 -66 -42 -73 -16 -7
-226 17 -551 63 -115 17 -212 30 -215 30 -3 0 -6 7 -6 15 0 18 1 18 134 1 204
-27 228 -26 236 18 3 20 4 20 14 -4 17 -41 33 -48 143 -64 210 -30 225 -30
248 -6 11 12 22 40 26 63 18 127 62 326 71 323 6 -2 8 -10 7 -17z m109 -18
c-6 -4 -11 -21 -13 -39 -1 -18 -5 -32 -9 -32 -4 0 -13 -24 -19 -52 -10 -49
-29 -96 -30 -73 0 17 50 188 63 214 10 20 13 21 15 6 2 -10 -1 -21 -7 -24z
m59 35 c0 -3 -4 -8 -10 -11 -5 -3 -10 -1 -10 4 0 6 5 11 10 11 6 0 10 -2 10
-4z m-3444 -13 c46 -7 47 -8 19 -14 -16 -4 -43 -7 -60 -7 -29 0 -30 0 -5 9 19
6 12 8 -28 5 -29 -2 -55 1 -58 5 -6 11 65 12 132 2z m3458 -12 c9 -13 -19 -21
-35 -9 -11 8 -10 9 4 4 9 -3 17 -1 17 4 0 12 7 13 14 1z m-1336 -26 c-2 -19
-8 -25 -25 -25 -13 0 -23 5 -23 11 0 5 4 7 10 4 5 -3 15 3 22 15 16 26 18 25
16 -5z m-2050 8 c-10 -2 -28 -2 -40 0 -13 2 -5 4 17 4 22 1 32 -1 23 -4z
m3432 -3 c0 -5 -4 -10 -9 -10 -6 0 -13 5 -16 10 -3 6 1 10 9 10 9 0 16 -4 16
-10z m1270 3 c-8 -3 -18 -11 -22 -17 -5 -7 -8 -4 -8 7 0 11 7 17 23 16 15 0
17 -2 7 -6z m64 -2 c4 -5 -3 -7 -14 -4 -23 6 -26 13 -6 13 8 0 17 -4 20 -9z
m-1434 -16 c0 -8 -4 -15 -10 -15 -5 0 -10 7 -10 15 0 8 5 15 10 15 6 0 10 -7
10 -15z m1577 -1 c-3 -3 -12 -4 -19 -1 -8 3 -5 6 6 6 11 1 17 -2 13 -5z
m-4041 -48 c-15 -23 -15 -26 1 -34 13 -8 12 -9 -9 -9 -14 0 -25 5 -25 13 0 8
4 14 9 14 5 0 14 11 20 25 6 14 13 23 16 20 3 -2 -3 -16 -12 -29z m1058 -5
c-6 -6 -34 20 -34 32 0 6 8 2 19 -9 10 -10 17 -21 15 -23z m913 13 c-3 -3 -12
-4 -19 -1 -8 3 -5 6 6 6 11 1 17 -2 13 -5z m-423 -20 c3 -8 2 -12 -4 -9 -6 3
-10 10 -10 16 0 14 7 11 14 -7z m1234 8 c9 -7 10 -15 3 -35 -11 -28 -18 -31
-61 -27 -37 3 -39 7 -27 40 9 24 17 30 42 30 16 0 36 -4 43 -8z m-2692 -27
c33 -5 51 -12 51 -21 0 -11 -12 -12 -56 -8 -31 4 -57 7 -57 8 -1 1 -5 12 -9
26 -7 21 -6 23 6 13 8 -6 37 -15 65 -18z m1348 -1 c3 -8 2 -12 -4 -9 -6 3 -10
10 -10 16 0 14 7 11 14 -7z m556 -19 c0 -8 -9 -15 -20 -15 -17 0 -19 2 -8 15
17 19 28 19 28 0z m670 -70 c0 -8 -4 -15 -10 -15 -5 0 -10 7 -10 15 0 8 5 15
10 15 6 0 10 -7 10 -15z m-274 -30 c17 -16 14 -18 -10 -9 -9 3 -16 10 -16 15
0 13 9 11 26 -6z m961 -27 c-3 -8 -6 -5 -6 6 -1 11 2 17 5 13 3 -3 4 -12 1
-19z m48 12 c3 -5 1 -10 -4 -10 -6 0 -11 5 -11 10 0 6 2 10 4 10 3 0 8 -4 11
-10z m-2260 -10 c3 -5 -1 -10 -9 -10 -9 0 -16 5 -16 10 0 6 4 10 9 10 6 0 13
-4 16 -10z m98 -17 c-7 -2 -19 -2 -25 0 -7 3 -2 5 12 5 14 0 19 -2 13 -5z
m2064 -89 c-3 -3 -12 -4 -19 -1 -8 3 -5 6 6 6 11 1 17 -2 13 -5z"/>
<path d="M1310 4695 c-8 -9 -8 -15 -2 -15 12 0 26 19 19 26 -2 2 -10 -2 -17
-11z"/>
<path d="M1855 4291 c-6 -11 9 -23 19 -14 9 9 7 23 -3 23 -6 0 -12 -4 -16 -9z"/>
<path d="M8058 4283 c7 -3 16 -2 19 1 4 3 -2 6 -13 5 -11 0 -14 -3 -6 -6z"/>
<path d="M8060 4259 c0 -5 5 -7 10 -4 6 3 10 8 10 11 0 2 -4 4 -10 4 -5 0 -10
-5 -10 -11z"/>
<path d="M2508 3843 c7 -3 16 -2 19 1 4 3 -2 6 -13 5 -11 0 -14 -3 -6 -6z"/>
<path d="M7980 3816 c0 -2 7 -7 16 -10 8 -3 12 -2 9 4 -6 10 -25 14 -25 6z"/>
<path d="M7978 3783 c7 -3 16 -2 19 1 4 3 -2 6 -13 5 -11 0 -14 -3 -6 -6z"/>
<path d="M7348 3394 c-13 -28 -2 -58 23 -60 9 -1 10 0 2 3 -7 3 -13 9 -13 15
0 5 6 8 14 5 8 -3 16 2 19 13 3 12 -2 20 -15 23 -11 3 -17 10 -13 16 3 6 4 11
0 11 -3 0 -11 -12 -17 -26z m32 -19 c0 -2 -7 -5 -15 -9 -9 -3 -15 0 -15 9 0 9
6 12 15 9 8 -4 15 -7 15 -9z"/>
<path d="M6242 2943 c2 -9 8 -18 15 -20 7 -3 9 3 6 16 -6 25 -26 28 -21 4z"/>
<path d="M7120 2909 c0 -5 5 -7 10 -4 6 3 10 8 10 11 0 2 -4 4 -10 4 -5 0 -10
-5 -10 -11z"/>
</g>
</svg>
