<?xml version="1.0" standalone="no"?>
<!DOCTYPE svg PUBLIC "-//W3C//DTD SVG 20010904//EN"
 "http://www.w3.org/TR/2001/REC-SVG-20010904/DTD/svg10.dtd">
<svg version="1.0" xmlns="http://www.w3.org/2000/svg"
 width="600.000000pt" height="424.000000pt" viewBox="0 0 600.000000 424.000000"
 preserveAspectRatio="xMidYMid meet">

<g transform="translate(0.000000,424.000000) scale(0.100000,-0.100000)"
fill="#000000" stroke="none">
<path d="M2884 3538 l-49 -100 -99 6 c-54 3 -106 11 -113 18 -10 8 -214 20
-671 39 -362 16 -669 28 -683 28 -22 1 -39 -15 -99 -96 -41 -54 -84 -109 -97
-122 -13 -13 -33 -40 -45 -60 -12 -20 -124 -175 -249 -346 -124 -170 -230
-320 -234 -333 -11 -38 14 -192 34 -199 9 -4 113 -44 231 -91 806 -316 1431
-539 2580 -920 825 -273 1163 -382 1189 -382 27 0 391 146 409 164 11 11 67
204 228 791 20 72 49 175 64 230 16 55 77 273 135 485 59 212 111 390 117 397
9 12 59 245 53 251 -2 3 -591 38 -1790 107 -440 25 -819 48 -842 51 l-41 5 35
76 c25 54 32 78 24 86 -26 26 -40 12 -87 -85z m-1561 -105 c-7 -2 -19 -2 -25
0 -7 3 -2 5 12 5 14 0 19 -2 13 -5z m277 -23 c0 -5 -7 -7 -15 -4 -8 4 -12 10
-9 15 6 11 24 2 24 -11z m120 2 c0 -14 -11 -21 -26 -15 -8 3 -11 9 -8 14 7 11
34 12 34 1z m120 -16 c-6 -8 -18 -12 -26 -9 -23 9 -16 23 12 23 22 0 24 -2 14
-14z m130 -6 c0 -5 -12 -10 -26 -10 -14 0 -23 4 -19 10 3 6 15 10 26 10 10 0
19 -4 19 -10z m160 -9 c0 -15 -16 -22 -34 -15 -25 9 -19 24 9 24 14 0 25 -4
25 -9z m140 -10 c0 -15 -16 -22 -34 -15 -25 9 -19 24 9 24 14 0 25 -4 25 -9z
m148 -12 c-2 -6 -7 -10 -11 -10 -4 1 -16 1 -28 1 -11 0 -17 5 -14 10 8 14 58
13 53 -1z m155 -15 c-4 -10 -13 -14 -27 -10 -11 3 -25 6 -29 6 -5 0 -5 5 -2
10 3 6 19 10 35 10 23 0 28 -4 23 -16z m197 -9 c0 -15 -11 -19 -40 -15 -20 3
-23 7 -15 19 10 17 55 13 55 -4z m175 -5 c18 0 18 -1 3 -16 -11 -12 -25 -14
-47 -9 -17 4 -31 10 -31 14 0 15 15 22 35 17 11 -3 29 -6 40 -6z m185 -27 c0
-9 -12 -13 -40 -11 -39 3 -47 8 -33 22 12 12 73 3 73 -11z m210 -3 c0 -24 -40
-34 -67 -17 -7 5 -17 5 -23 2 -11 -7 -14 8 -4 18 9 9 94 6 94 -3z m204 -12
c-3 -5 -9 -6 -14 -3 -5 3 -11 1 -15 -5 -3 -5 1 -10 10 -10 9 0 13 -4 10 -10
-14 -23 -59 -2 -49 23 4 11 16 16 34 15 16 -1 26 -6 24 -10z m48 -15 c-5 -25
-10 -27 -32 -13 -10 6 -11 10 -2 10 6 0 11 3 11 8 -2 14 1 19 14 19 9 0 12 -9
9 -24z m198 -3 c-20 -13 -50 -13 -50 0 0 6 15 10 33 10 24 0 28 -3 17 -10z
m-2365 -10 c-3 -5 -11 -10 -16 -10 -6 0 -7 5 -4 10 3 6 11 10 16 10 6 0 7 -4
4 -10z m2603 -1 c21 1 31 -2 27 -9 -3 -5 -18 -10 -33 -11 l-27 -1 25 -8 c19
-6 12 -8 -27 -7 -54 1 -58 4 -47 31 5 12 13 15 28 10 11 -4 36 -6 54 -5z
m-2488 -9 c0 -5 -7 -10 -16 -10 -8 0 -12 5 -9 10 3 6 10 10 16 10 5 0 9 -4 9
-10z m114 -12 c-3 -4 -9 -8 -15 -8 -5 0 -9 4 -9 8 0 5 7 9 15 9 8 0 12 -4 9
-9z m126 -7 c0 -12 -20 -25 -27 -18 -7 7 6 27 18 27 5 0 9 -4 9 -9z m130 -10
c0 -12 -26 -32 -33 -25 -9 10 4 34 19 34 8 0 14 -4 14 -9z m130 -20 c0 -6 -4
-13 -10 -16 -5 -3 -10 1 -10 9 0 9 5 16 10 16 6 0 10 -4 10 -9z m140 -15 c0
-18 -16 -29 -30 -21 -13 8 -1 35 16 35 8 0 14 -6 14 -14z m2318 -3 c-21 -5
-23 -19 -5 -26 6 -3 2 -6 -11 -6 -20 -1 -21 2 -12 19 6 11 18 19 28 19 16 -1
16 -2 0 -6z m-2168 -13 c0 -12 -28 -25 -36 -17 -9 9 6 27 22 27 8 0 14 -5 14
-10z m150 -15 c0 -15 -26 -32 -36 -23 -2 3 -2 13 2 22 8 20 34 21 34 1z m2290
-5 c0 -11 -7 -20 -15 -20 -13 0 -13 3 -3 20 7 11 14 20 15 20 2 0 3 -9 3 -20z
m-3740 6 c0 -11 -19 -15 -25 -6 -3 5 1 10 9 10 9 0 16 -2 16 -4z m4055 -27 c0
-8 -10 -15 -23 -17 -21 -3 -22 -1 -12 18 12 23 35 22 35 -1z m-3915 4 c-8 -3
-18 -11 -22 -17 -5 -7 -8 -4 -8 7 0 11 7 17 23 16 15 0 17 -2 7 -6z m128 -15
c-3 -7 -13 -15 -24 -17 -16 -3 -17 -1 -5 13 16 19 34 21 29 4z m1508 -15 c-10
-10 -19 5 -10 18 6 11 8 11 12 0 2 -7 1 -15 -2 -18z m-1409 -10 c-9 -9 -19
-14 -23 -11 -10 10 6 28 24 28 15 0 15 -1 -1 -17z m117 -8 c-4 -8 -13 -15 -21
-15 -13 0 -13 3 -3 15 7 8 16 15 21 15 5 0 6 -7 3 -15z m114 -12 c-10 -2 -18
-9 -18 -15 0 -6 -3 -9 -6 -5 -10 10 6 27 24 26 15 -1 15 -2 0 -6z m2992 -35
c0 -36 -38 -68 -81 -68 -69 0 -59 64 16 95 36 16 65 4 65 -27z m-2860 23 c0
-5 -7 -14 -15 -21 -16 -14 -18 -10 -9 14 6 17 24 22 24 7z m1690 -11 c0 -13
-11 -13 -30 0 -12 8 -11 10 8 10 12 0 22 -4 22 -10z m-1564 -11 c7 -12 -15
-31 -28 -23 -9 6 1 34 12 34 5 0 12 -5 16 -11z m1814 -9 c0 -5 -15 -10 -34
-10 -19 0 -38 5 -41 10 -4 6 10 10 34 10 23 0 41 -4 41 -10z m1205 -10 c12
-38 -28 -80 -78 -80 -32 0 -47 19 -37 46 19 49 102 74 115 34z m-3965 0 c0 -5
-4 -10 -10 -10 -5 0 -10 5 -10 10 0 6 5 10 10 10 6 0 10 -4 10 -10z m1090 6
c0 -16 -14 -36 -26 -36 -14 0 -19 22 -7 33 7 8 33 10 33 3z m1891 -16 c18 0
28 -4 24 -10 -3 -5 -17 -10 -31 -10 -13 0 -24 -4 -24 -10 0 -5 -10 -10 -22
-10 -21 0 -21 0 -2 15 11 8 14 15 7 15 -7 0 -13 5 -13 11 0 6 7 8 16 5 9 -3
29 -6 45 -6z m-2823 -9 c10 -6 7 -10 -12 -13 -18 -4 -26 -1 -26 8 0 16 18 18
38 5z m1060 -11 c-13 -20 -28 -27 -28 -12 0 10 22 32 32 32 5 0 3 -9 -4 -20z
m162 -20 c-6 -11 -20 -20 -31 -20 -17 0 -18 3 -9 20 6 11 20 20 31 20 17 0 18
-3 9 -20z m-1085 0 c-3 -5 -13 -10 -21 -10 -8 0 -12 5 -9 10 3 6 13 10 21 10
8 0 12 -4 9 -10z m3005 -1 c0 -5 -11 -9 -25 -9 -33 0 -33 15 0 16 14 1 25 -2
25 -7z m-1755 -9 c3 -6 -6 -15 -20 -20 -36 -14 -37 -13 -25 10 11 21 35 27 45
10z m-1147 -12 c-6 -18 -28 -21 -28 -4 0 9 7 16 16 16 9 0 14 -5 12 -12z m111
-24 c-6 -7 -15 -11 -21 -8 -5 3 -4 12 3 20 6 7 15 11 21 8 5 -3 4 -12 -3 -20z
m1181 -4 c-6 -12 -14 -19 -17 -17 -2 3 1 15 7 27 6 12 14 19 17 17 2 -3 -1
-15 -7 -27z m1856 15 c-11 -8 -25 -15 -30 -15 -6 1 0 7 14 15 32 19 40 18 16
0z m-2911 -26 c-4 -5 -13 -9 -22 -9 -13 0 -13 3 -3 15 13 15 35 11 25 -6z
m1231 -17 c-18 -16 -18 -16 -6 6 6 13 14 21 18 18 3 -4 -2 -14 -12 -24z m1992
6 c2 -12 -3 -16 -23 -14 -26 3 -48 16 -26 16 7 0 9 5 5 11 -4 7 2 9 17 7 13
-1 25 -11 27 -20z m-3102 -17 c-8 -13 -36 -15 -36 -3 0 4 5 13 12 20 14 14 34
0 24 -17z m-856 9 c0 -5 -2 -10 -4 -10 -3 0 -8 5 -11 10 -3 6 -1 10 4 10 6 0
11 -4 11 -10z m990 -20 c0 -12 -28 -25 -36 -17 -9 9 6 27 22 27 8 0 14 -5 14
-10z m1218 -15 c-3 -3 -9 2 -12 12 -6 14 -5 15 5 6 7 -7 10 -15 7 -18z m2062
9 c0 -2 -7 -4 -15 -4 -8 0 -15 4 -15 10 0 5 7 7 15 4 8 -4 15 -8 15 -10z
m-4095 -4 c18 -8 17 -9 -7 -9 -16 -1 -28 4 -28 9 0 12 8 12 35 0z m955 -8 c0
-12 -23 -32 -37 -32 -7 0 -13 5 -13 10 0 6 7 10 15 10 8 0 15 5 15 10 0 6 5
10 10 10 6 0 10 -4 10 -8z m1384 -8 c25 -10 19 -22 -9 -16 -14 2 -25 8 -25 13
0 10 12 11 34 3z m-2179 -30 c-9 -9 -19 -13 -23 -10 -3 4 0 11 8 16 24 15 33
11 15 -6z m935 6 c0 -12 -28 -25 -36 -17 -9 9 6 27 22 27 8 0 14 -5 14 -10z
m1493 -20 c-10 -10 -65 -1 -58 9 2 4 18 6 35 3 17 -2 28 -8 23 -12z m-2313 -5
c-7 -9 -15 -13 -17 -11 -7 7 7 26 19 26 6 0 6 -6 -2 -15z m956 -5 c0 -11 -6
-20 -13 -20 -15 0 -15 2 -7 24 9 22 20 20 20 -4z m-850 -15 c-8 -8 -18 -15
-22 -15 -3 0 -1 7 6 15 7 8 17 15 22 15 5 0 3 -7 -6 -15z m2458 -6 c-3 -5 -17
-9 -32 -10 l-27 -1 25 -7 c33 -9 5 -21 -33 -14 -25 5 -39 23 -17 23 5 0 7 6 5
13 -4 9 7 11 40 9 25 -2 42 -8 39 -13z m-3109 -9 c3 -5 -1 -10 -9 -10 -9 0
-16 5 -16 10 0 6 4 10 9 10 6 0 13 -4 16 -10z m1665 0 c0 -5 -5 -10 -11 -10
-5 0 -7 5 -4 10 3 6 8 10 11 10 2 0 4 -4 4 -10z m-885 -17 c-19 -13 -31 -11
-21 5 3 5 13 9 22 9 15 0 15 -2 -1 -14z m3722 -5 c-3 -8 -6 -5 -6 6 -1 11 2
17 5 13 3 -3 4 -12 1 -19z m-1157 4 c0 -5 21 -13 48 -19 l47 -11 -57 2 c-37 0
-58 5 -58 13 0 6 -6 14 -12 16 -7 3 -3 6 10 6 12 1 22 -3 22 -7z m-3200 -18
c0 -2 -11 -3 -24 -2 -14 1 -23 5 -20 9 4 7 44 0 44 -7z m766 0 c-3 -9 -6 -18
-6 -20 0 -2 -7 -4 -15 -4 -18 0 -19 12 -3 28 17 17 31 15 24 -4z m3573 -53
c-7 -23 -14 -39 -16 -37 -3 2 1 23 8 45 7 23 14 39 16 37 3 -2 -1 -23 -8 -45z
m-3432 24 c-4 -13 -47 -20 -47 -7 0 14 11 21 31 19 11 -1 18 -6 16 -12z m2614
-7 c3 -5 13 -6 22 -2 10 4 17 1 17 -6 0 -8 -9 -11 -25 -8 -14 3 -25 1 -25 -3
0 -5 -11 -9 -25 -9 -18 0 -25 5 -25 18 0 10 3 22 7 25 8 9 46 -2 54 -15z
m-3414 -5 c-9 -9 -19 -14 -23 -11 -10 10 6 28 24 28 15 0 15 -1 -1 -17z m1908
8 l30 -7 -34 -17 c-43 -22 -75 -23 -67 -2 3 9 0 15 -9 15 -8 0 -15 5 -15 10 0
11 48 11 95 1z m-965 -20 c0 -5 -6 -13 -13 -19 -15 -13 -42 1 -33 17 8 13 46
15 46 2z m2745 -26 c0 -22 -31 -33 -47 -17 -17 17 -1 44 24 40 15 -2 23 -10
23 -23z m75 5 c0 -6 -13 -9 -29 -8 -16 1 -27 6 -25 10 7 12 54 10 54 -2z
m-1334 -27 c-10 -10 -19 5 -10 18 6 11 8 11 12 0 2 -7 1 -15 -2 -18z m1324 -4
c0 -5 -4 -7 -10 -4 -5 3 -10 1 -10 -5 0 -6 -5 -8 -10 -5 -6 4 -8 11 -5 16 8
12 35 11 35 -2z m-2360 -49 c-8 -5 -19 -10 -25 -10 -5 0 -3 5 5 10 8 5 20 10
25 10 6 0 3 -5 -5 -10z m344 -61 c49 -13 35 -27 -21 -21 -28 2 -43 9 -43 18 0
17 12 17 64 3z m2443 -11 c-3 -8 -6 -5 -6 6 -1 11 2 17 5 13 3 -3 4 -12 1 -19z
m-1161 -7 c15 13 17 9 8 -15 -7 -19 -13 -20 -38 -1 -10 8 -15 19 -11 26 6 8
10 7 17 -5 8 -14 13 -15 24 -5z m38 -16 c-4 -8 -10 -12 -15 -9 -11 6 -2 24 11
24 5 0 7 -7 4 -15z m940 -4 c7 -11 -22 -23 -35 -15 -5 3 -9 9 -9 15 0 12 37
12 44 0z m-674 -31 c-11 -7 -11 -10 -2 -10 7 0 10 -4 7 -10 -3 -5 -18 -10 -33
-9 -15 0 -22 3 -15 5 7 3 9 12 6 20 -4 10 3 14 23 14 23 0 26 -2 14 -10z
m-2192 -13 c10 4 13 2 8 -5 -8 -14 -56 -16 -56 -4 0 15 13 23 23 13 5 -5 16
-7 25 -4z m152 -7 c0 -5 -5 -10 -11 -10 -5 0 -7 5 -4 10 3 6 8 10 11 10 2 0 4
-4 4 -10z m2320 -20 c16 0 3 -35 -14 -38 -33 -7 -48 6 -36 29 7 12 17 18 27
15 8 -3 18 -6 23 -6z m48 -22 c-2 -6 -10 -14 -16 -16 -7 -2 -10 2 -6 12 7 18
28 22 22 4z m-2198 -8 c0 -5 -2 -10 -4 -10 -3 0 -8 5 -11 10 -3 6 -1 10 4 10
6 0 11 -4 11 -10z m933 -4 c4 -10 -2 -13 -19 -12 -26 1 -32 11 -11 19 20 9 25
8 30 -7z m-860 -32 c8 -9 -23 -54 -37 -54 -27 1 -38 17 -27 39 11 20 50 29 64
15z m240 -61 c19 -11 4 -22 -25 -17 -51 9 -60 13 -53 25 6 9 57 4 78 -8z
m1137 -13 c0 -14 -7 -20 -22 -20 -21 1 -21 2 -5 11 9 6 15 14 12 20 -4 5 -1 9
4 9 6 0 11 -9 11 -20z m73 -10 c15 0 18 -3 9 -8 -17 -11 -73 -2 -66 10 3 5 13
7 21 4 8 -3 24 -6 36 -6z m231 -36 c12 -5 13 -10 5 -25 -16 -31 -66 -18 -53
14 6 18 22 21 48 11z m-1156 -24 c-7 -11 -16 -20 -20 -20 -13 0 -9 28 5 33 23
10 27 7 15 -13z m1216 -11 c-3 -5 -11 -9 -19 -9 -8 0 -16 4 -19 9 -3 5 5 9 19
9 14 0 22 -4 19 -9z m254 -33 c10 -10 -14 -36 -33 -36 -29 0 -42 18 -20 26 14
6 14 9 3 16 -9 6 -3 7 17 3 16 -4 31 -8 33 -9z m-1235 -6 c7 0 6 -4 -3 -10
-21 -14 -27 -12 -34 6 -5 12 -2 15 10 10 8 -3 21 -6 27 -6z m1307 -10 c0 -5
-13 -10 -30 -10 -16 0 -30 4 -30 8 0 4 14 9 30 10 17 1 30 -2 30 -8z m-10 -28
c0 -4 -13 -9 -30 -10 -16 -1 -30 1 -30 6 0 4 14 9 30 10 17 1 30 -1 30 -6z
m-1067 -39 c-9 -7 -19 -10 -22 -7 -3 3 1 9 9 14 8 6 11 10 7 10 -5 0 -5 5 -1
11 4 8 9 7 15 -2 6 -9 3 -18 -8 -26z m1517 -17 c0 -11 -19 -15 -25 -6 -3 5 1
10 9 10 9 0 16 -2 16 -4z m-3 -58 c-3 -7 -5 -2 -5 12 0 14 2 19 5 13 2 -7 2
-19 0 -25z m-1068 -4 c11 -10 -12 -34 -34 -34 -26 0 -29 7 -19 34 6 15 37 14
53 0z m55 -10 c9 -3 16 -10 16 -15 0 -6 -8 -6 -19 0 -10 6 -21 7 -25 4 -3 -3
-6 -1 -6 5 0 13 10 15 34 6z m775 -53 c0 -9 -3 -11 -5 -5 -3 6 -16 9 -29 6
-23 -4 -33 7 -20 20 12 11 55 -5 54 -21z m90 -6 c2 -2 -9 -7 -25 -11 -18 -5
-29 -3 -32 4 -2 7 -8 10 -13 6 -5 -3 -9 0 -9 5 0 10 68 6 79 -4z m-421 -51
c12 -4 22 -9 22 -13 0 -11 -39 -11 -45 0 -4 5 -11 6 -17 3 -7 -4 -8 -2 -4 4 8
14 12 14 44 6z m463 -243 c-30 -102 -59 -167 -46 -106 13 63 68 229 72 218 2
-6 -9 -57 -26 -112z m-384 -53 c-3 -8 -6 -5 -6 6 -1 11 2 17 5 13 3 -3 4 -12
1 -19z"/>
<path d="M3958 3243 c7 -3 16 -2 19 1 4 3 -2 6 -13 5 -11 0 -14 -3 -6 -6z"/>
<path d="M4563 3052 c-24 -4 -54 -32 -34 -32 6 0 11 5 11 10 0 6 12 10 26 10
14 0 23 -4 19 -10 -3 -5 -1 -10 4 -10 12 0 15 27 4 32 -5 2 -18 2 -30 0z"/>
<path d="M4510 3001 c0 -6 5 -13 10 -16 6 -3 10 1 10 9 0 9 -4 16 -10 16 -5 0
-10 -4 -10 -9z"/>
<path d="M4566 2995 c-11 -8 -15 -15 -9 -15 6 0 16 7 23 15 16 19 11 19 -14 0z"/>
<path d="M4838 3003 c6 -2 18 -2 25 0 6 3 1 5 -13 5 -14 0 -19 -2 -12 -5z"/>
<path d="M3920 1970 c0 -5 4 -10 9 -10 6 0 13 5 16 10 3 6 -1 10 -9 10 -9 0
-16 -4 -16 -10z"/>
</g>
</svg>
